<svg viewBox="0 0 1100 1800" preserveAspectRatio="xMidYMid meet" fill="none" xmlns="http://www.w3.org/2000/svg">
<g clip-path="url(#clip0_6948_472)">
<rect width="1100" height="1800" fill="#002FA7"/>
<path d="M140.851 179V171.2C141.787 171.278 142.879 171.278 143.815 171.278C146.545 171.278 148.729 170.264 148.729 166.052V124.4H157.309V165.428C157.309 176.348 151.459 179.156 144.985 179.156C143.425 179.156 142.255 179.156 140.851 179ZM197.078 132.2V147.41H208.856V155.21H197.078V171.2H211.898V179H188.498V124.4H211.898V132.2H197.078ZM261.597 124.4L270.333 179H261.675L260.193 169.094H249.663L248.181 179H240.303L249.039 124.4H261.597ZM254.889 134.072L250.755 161.684H259.023L254.889 134.072ZM318.009 179L307.323 139.454V179H299.601V124.4H310.365L319.179 157.082V124.4H326.823V179H318.009ZM357.926 155.6V147.8H373.526V155.6H357.926ZM417.325 124.4C425.905 124.4 430.117 129.158 430.117 137.894V144.992C430.117 153.728 425.905 158.486 417.325 158.486H413.269V179H404.689V124.4H417.325ZM417.325 132.2H413.269V150.686H417.325C420.055 150.686 421.537 149.438 421.537 145.538V137.348C421.537 133.448 420.055 132.2 417.325 132.2ZM459.823 179V124.4H468.403V179H459.823ZM508.606 132.2V147.41H520.384V155.21H508.606V171.2H523.426V179H500.026V124.4H523.426V132.2H508.606ZM580.769 179H572.033C571.565 177.596 571.253 176.738 571.253 172.292V163.712C571.253 158.642 569.537 156.77 565.637 156.77H562.673V179H554.093V124.4H567.041C575.933 124.4 579.755 128.534 579.755 136.958V141.248C579.755 146.864 577.961 150.53 574.139 152.324C578.429 154.118 579.833 158.252 579.833 163.946V172.37C579.833 175.022 579.911 176.972 580.769 179ZM566.807 132.2H562.673V148.97H566.027C569.225 148.97 571.175 147.566 571.175 143.198V137.816C571.175 133.916 569.849 132.2 566.807 132.2ZM637.502 179H628.766C628.298 177.596 627.986 176.738 627.986 172.292V163.712C627.986 158.642 626.27 156.77 622.37 156.77H619.406V179H610.826V124.4H623.774C632.666 124.4 636.488 128.534 636.488 136.958V141.248C636.488 146.864 634.694 150.53 630.872 152.324C635.162 154.118 636.566 158.252 636.566 163.946V172.37C636.566 175.022 636.644 176.972 637.502 179ZM623.54 132.2H619.406V148.97H622.76C625.958 148.97 627.908 147.566 627.908 143.198V137.816C627.908 133.916 626.582 132.2 623.54 132.2ZM676.138 132.2V147.41H687.916V155.21H676.138V171.2H690.958V179H667.558V124.4H690.958V132.2H676.138ZM771.957 156.38V148.58H783.969V165.896C783.969 174.632 779.601 179.624 771.177 179.624C762.753 179.624 758.385 174.632 758.385 165.896V137.504C758.385 128.768 762.753 123.776 771.177 123.776C779.601 123.776 783.969 128.768 783.969 137.504V142.808H775.857V136.958C775.857 133.058 774.141 131.576 771.411 131.576C768.681 131.576 766.965 133.058 766.965 136.958V166.442C766.965 170.342 768.681 171.746 771.411 171.746C774.141 171.746 775.857 170.342 775.857 166.442V156.38H771.957ZM822.707 136.958V166.442C822.707 170.342 824.423 171.824 827.153 171.824C829.883 171.824 831.599 170.342 831.599 166.442V136.958C831.599 133.058 829.883 131.576 827.153 131.576C824.423 131.576 822.707 133.058 822.707 136.958ZM814.127 165.896V137.504C814.127 128.768 818.729 123.776 827.153 123.776C835.577 123.776 840.179 128.768 840.179 137.504V165.896C840.179 174.632 835.577 179.624 827.153 179.624C818.729 179.624 814.127 174.632 814.127 165.896ZM870.715 124.4H879.295V166.52C879.295 170.42 881.011 171.824 883.741 171.824C886.471 171.824 888.187 170.42 888.187 166.52V124.4H896.299V165.974C896.299 174.71 891.931 179.702 883.507 179.702C875.083 179.702 870.715 174.71 870.715 165.974V124.4ZM948.203 124.4H956.159L947.189 150.92L956.783 179H947.735L940.715 157.394L933.617 179H925.583L935.177 150.92L926.207 124.4H935.099L941.573 144.524L948.203 124.4Z" fill="white"/>
<path d="M139.383 730.5H150.933V793.5H169.938V804H139.383V730.5ZM185.976 730.5H217.476V741H197.526V760.425H213.381V770.925H197.526V793.5H217.476V804H185.976V730.5ZM261.937 730.5H278.947C284.687 730.5 288.992 732.04 291.862 735.12C294.732 738.2 296.167 742.715 296.167 748.665V755.91C296.167 761.86 294.732 766.375 291.862 769.455C288.992 772.535 284.687 774.075 278.947 774.075H273.487V804H261.937V730.5ZM278.947 763.575C280.837 763.575 282.237 763.05 283.147 762C284.127 760.95 284.617 759.165 284.617 756.645V747.93C284.617 745.41 284.127 743.625 283.147 742.575C282.237 741.525 280.837 741 278.947 741H273.487V763.575H278.947ZM312.94 730.5H344.44V741H324.49V760.425H340.345V770.925H324.49V793.5H344.44V804H312.94V730.5ZM370.615 741H358.54V730.5H394.24V741H382.165V804H370.615V741ZM410.332 730.5H421.882V804H410.332V730.5ZM450.062 741H437.987V730.5H473.687V741H461.612V804H450.062V741ZM517.096 730.5H528.646V793.5H547.651V804H517.096V730.5ZM563.689 730.5H575.239V804H563.689V730.5ZM591.344 730.5H602.999L610.559 787.515H610.769L618.329 730.5H628.934L617.804 804H602.474L591.344 730.5ZM644.982 730.5H662.097C668.047 730.5 672.387 731.9 675.117 734.7C677.847 737.43 679.212 741.665 679.212 747.405V751.92C679.212 759.55 676.692 764.38 671.652 766.41V766.62C674.452 767.46 676.412 769.175 677.532 771.765C678.722 774.355 679.317 777.82 679.317 782.16V795.075C679.317 797.175 679.387 798.89 679.527 800.22C679.667 801.48 680.017 802.74 680.577 804H668.817C668.397 802.81 668.117 801.69 667.977 800.64C667.837 799.59 667.767 797.7 667.767 794.97V781.53C667.767 778.17 667.207 775.825 666.087 774.495C665.037 773.165 663.182 772.5 660.522 772.5H656.532V804H644.982V730.5ZM660.732 762C663.042 762 664.757 761.405 665.877 760.215C667.067 759.025 667.662 757.03 667.662 754.23V748.56C667.662 745.9 667.172 743.975 666.192 742.785C665.282 741.595 663.812 741 661.782 741H656.532V762H660.732ZM697.831 730.5H729.331V741H709.381V760.425H725.236V770.925H709.381V793.5H729.331V804H697.831V730.5ZM773.792 730.5H791.222C797.172 730.5 801.512 731.9 804.242 734.7C806.972 737.43 808.337 741.665 808.337 747.405V750.345C808.337 754.125 807.707 757.205 806.447 759.585C805.257 761.965 803.402 763.68 800.882 764.73V764.94C806.622 766.9 809.492 772.01 809.492 780.27V786.57C809.492 792.24 807.987 796.58 804.977 799.59C802.037 802.53 797.697 804 791.957 804H773.792V730.5ZM789.857 760.425C792.167 760.425 793.882 759.83 795.002 758.64C796.192 757.45 796.787 755.455 796.787 752.655V748.56C796.787 745.9 796.297 743.975 795.317 742.785C794.407 741.595 792.937 741 790.907 741H785.342V760.425H789.857ZM791.957 793.5C793.987 793.5 795.492 792.975 796.472 791.925C797.452 790.805 797.942 788.915 797.942 786.255V779.85C797.942 776.49 797.347 774.18 796.157 772.92C795.037 771.59 793.147 770.925 790.487 770.925H785.342V793.5H791.957ZM826.743 730.5H838.293V793.5H857.298V804H826.743V730.5ZM873.337 730.5H904.837V741H884.887V760.425H900.742V770.925H884.887V793.5H904.837V804H873.337V730.5ZM938.781 805.05C933.181 805.05 928.911 803.475 925.971 800.325C923.031 797.105 921.561 792.52 921.561 786.57V730.5H933.111V787.41C933.111 789.93 933.601 791.75 934.581 792.87C935.631 793.99 937.101 794.55 938.991 794.55C940.881 794.55 942.316 793.99 943.296 792.87C944.346 791.75 944.871 789.93 944.871 787.41V730.5H956.001V786.57C956.001 792.52 954.531 797.105 951.591 800.325C948.651 803.475 944.381 805.05 938.781 805.05Z" fill="white"/>
<path d="M263.002 873.498C256.652 873.498 252.212 869.472 252.212 863.123V843.95H255.117V863.123C255.117 867.729 257.98 870.676 263.002 870.676C268.023 870.676 270.887 867.729 270.887 863.123V843.95H273.792V863.123C273.792 869.472 269.351 873.498 263.002 873.498ZM289.319 851.752C294.382 851.752 297.453 855.072 297.453 860.259V873H294.714V860.259C294.714 856.566 292.681 854.408 289.07 854.408C285.418 854.408 282.347 856.566 282.347 862.127V873H279.608V852.25H282.347V855.487C283.966 852.872 286.373 851.752 289.319 851.752ZM312.336 851.752C318.685 851.752 322.628 857.022 322.628 862.708C322.628 863.123 322.586 863.579 322.545 863.994H304.326C304.907 868.227 308.186 870.842 312.585 870.842C315.863 870.842 318.146 869.306 319.266 867.314L321.673 868.725C319.93 871.547 316.735 873.498 312.543 873.498C305.986 873.498 301.504 868.891 301.504 862.625C301.504 856.524 305.903 851.752 312.336 851.752ZM312.336 854.408C307.978 854.408 304.866 857.271 304.326 861.338H319.806C319.225 856.773 315.905 854.408 312.336 854.408ZM355.205 852.25H357.944V873H355.205V868.933C353.462 871.713 350.515 873.498 346.822 873.498C340.97 873.498 336.115 868.767 336.115 862.625C336.115 856.483 340.97 851.752 346.822 851.752C350.515 851.752 353.462 853.536 355.205 856.317V852.25ZM347.029 870.842C351.636 870.842 355.205 867.231 355.205 862.625C355.205 858.018 351.636 854.408 347.029 854.408C342.423 854.408 338.854 858.018 338.854 862.625C338.854 867.231 342.423 870.842 347.029 870.842ZM378.351 852.25H381.09V873H378.351V869.763C376.733 872.377 374.326 873.498 371.379 873.498C366.316 873.498 363.245 870.178 363.245 864.99V852.25H365.984V864.99C365.984 868.684 368.018 870.842 371.628 870.842C375.28 870.842 378.351 868.684 378.351 863.123V852.25ZM397.882 854.906H391.906V867.48C391.906 871.049 393.856 870.759 397.882 870.593V873C392.279 873.83 389.167 872.46 389.167 867.48V854.906H384.809V852.25H389.167V847.27L391.906 846.44V852.25H397.882V854.906ZM405.186 855.694C406.638 852.789 409.087 851.918 411.743 851.918V854.574C408.423 854.574 405.186 856.317 405.186 861.463V873H402.447V852.25H405.186V855.694ZM423.827 851.752C430.176 851.752 434.119 857.022 434.119 862.708C434.119 863.123 434.077 863.579 434.036 863.994H415.817C416.398 868.227 419.677 870.842 424.076 870.842C427.354 870.842 429.637 869.306 430.757 867.314L433.164 868.725C431.421 871.547 428.226 873.498 424.034 873.498C417.477 873.498 412.995 868.891 412.995 862.625C412.995 856.524 417.394 851.752 423.827 851.752ZM423.827 854.408C419.469 854.408 416.357 857.271 415.817 861.338H431.297C430.716 856.773 427.396 854.408 423.827 854.408ZM458.562 851.752C463.625 851.752 466.696 855.072 466.696 860.259V873H463.957V860.259C463.957 856.566 461.923 854.408 458.313 854.408C454.661 854.408 451.59 856.566 451.59 862.127V873H448.851V843.95H451.59V855.487C453.208 852.872 455.615 851.752 458.562 851.752ZM473.361 847.851C472.241 847.851 471.369 846.938 471.369 845.859C471.369 844.78 472.241 843.867 473.361 843.867C474.482 843.867 475.353 844.78 475.353 845.859C475.353 846.938 474.482 847.851 473.361 847.851ZM471.992 873V852.25H474.731V873H471.992ZM482.701 857.686C482.701 862.832 494.819 859.886 494.819 867.522C494.819 871.049 491.748 873.498 487.307 873.498C483.157 873.498 480.335 871.381 479.298 868.725L481.622 867.356C482.369 869.472 484.527 870.842 487.307 870.842C489.756 870.842 492.08 869.97 492.08 867.522C492.08 862.376 479.962 865.322 479.962 857.686C479.962 854.366 482.908 851.752 487.058 851.752C490.461 851.752 493.117 853.412 494.321 855.985L492.038 857.313C491.167 855.196 489.05 854.408 487.058 854.408C484.9 854.408 482.701 855.445 482.701 857.686ZM509.575 854.906H503.599V867.48C503.599 871.049 505.55 870.759 509.575 870.593V873C503.973 873.83 500.86 872.46 500.86 867.48V854.906H496.503V852.25H500.86V847.27L503.599 846.44V852.25H509.575V854.906ZM522.553 873.498C516.494 873.498 511.639 868.767 511.639 862.625C511.639 856.483 516.494 851.752 522.553 851.752C528.612 851.752 533.468 856.483 533.468 862.625C533.468 868.767 528.612 873.498 522.553 873.498ZM522.553 870.842C527.16 870.842 530.729 867.231 530.729 862.625C530.729 858.018 527.16 854.408 522.553 854.408C517.947 854.408 514.378 858.018 514.378 862.625C514.378 867.231 517.947 870.842 522.553 870.842ZM539.421 847.851C538.3 847.851 537.429 846.938 537.429 845.859C537.429 844.78 538.3 843.867 539.421 843.867C540.541 843.867 541.413 844.78 541.413 845.859C541.413 846.938 540.541 847.851 539.421 847.851ZM538.051 873V852.25H540.79V873H538.051ZM549.342 855.694C550.794 852.789 553.243 851.918 555.899 851.918V854.574C552.579 854.574 549.342 856.317 549.342 861.463V873H546.603V852.25H549.342V855.694ZM567.982 851.752C574.332 851.752 578.274 857.022 578.274 862.708C578.274 863.123 578.233 863.579 578.191 863.994H559.973C560.554 868.227 563.832 870.842 568.231 870.842C571.51 870.842 573.792 869.306 574.913 867.314L577.32 868.725C575.577 871.547 572.381 873.498 568.19 873.498C561.633 873.498 557.151 868.891 557.151 862.625C557.151 856.524 561.55 851.752 567.982 851.752ZM567.982 854.408C563.625 854.408 560.512 857.271 559.973 861.338H575.452C574.871 856.773 571.551 854.408 567.982 854.408ZM610.851 843.95H613.59V873H610.851V868.933C609.108 871.713 606.162 873.498 602.468 873.498C596.617 873.498 591.761 868.767 591.761 862.625C591.761 856.483 596.617 851.752 602.468 851.752C606.162 851.752 609.108 853.536 610.851 856.317V843.95ZM602.676 870.842C607.282 870.842 610.851 867.231 610.851 862.625C610.851 858.018 607.282 854.408 602.676 854.408C598.069 854.408 594.5 858.018 594.5 862.625C594.5 867.231 598.069 870.842 602.676 870.842ZM628.976 851.752C635.326 851.752 639.268 857.022 639.268 862.708C639.268 863.123 639.227 863.579 639.185 863.994H620.967C621.548 868.227 624.826 870.842 629.225 870.842C632.504 870.842 634.786 869.306 635.907 867.314L638.314 868.725C636.571 871.547 633.375 873.498 629.184 873.498C622.627 873.498 618.145 868.891 618.145 862.625C618.145 856.524 622.544 851.752 628.976 851.752ZM628.976 854.408C624.619 854.408 621.506 857.271 620.967 861.338H636.446C635.865 856.773 632.545 854.408 628.976 854.408ZM654 873V842.705H656.739V873H654ZM667.116 843.95L664.626 853.287H662.136L663.796 843.95H667.116ZM682.232 851.752C687.295 851.752 690.366 855.072 690.366 860.259V873H687.627V860.259C687.627 856.566 685.593 854.408 681.983 854.408C678.331 854.408 675.26 856.566 675.26 862.127V873H672.521V843.95H675.26V855.487C676.878 852.872 679.285 851.752 682.232 851.752ZM710.27 852.25H713.009V873H710.27V869.763C708.652 872.377 706.245 873.498 703.298 873.498C698.235 873.498 695.164 870.178 695.164 864.99V852.25H697.903V864.99C697.903 868.684 699.937 870.842 703.547 870.842C707.199 870.842 710.27 868.684 710.27 863.123V852.25ZM740.923 851.752C745.488 851.752 748.683 854.864 748.683 860.052V873H745.944V860.052C745.944 856.358 743.828 854.408 740.881 854.408C737.686 854.408 735.113 856.358 735.113 861.504V873H732.374V860.052C732.374 856.358 730.465 854.408 727.518 854.408C724.53 854.408 721.542 856.358 721.542 861.504V873H718.803V852.25H721.542V855.279C723.161 852.748 725.402 851.752 727.892 851.752C730.797 851.752 733.038 853.121 734.2 855.528C735.735 852.955 738.267 851.752 740.923 851.752ZM771.826 852.25H774.565V873H771.826V868.933C770.083 871.713 767.136 873.498 763.443 873.498C757.591 873.498 752.736 868.767 752.736 862.625C752.736 856.483 757.591 851.752 763.443 851.752C767.136 851.752 770.083 853.536 771.826 856.317V852.25ZM763.65 870.842C768.257 870.842 771.826 867.231 771.826 862.625C771.826 858.018 768.257 854.408 763.65 854.408C759.044 854.408 755.475 858.018 755.475 862.625C755.475 867.231 759.044 870.842 763.65 870.842ZM790.075 851.752C795.138 851.752 798.209 855.072 798.209 860.259V873H795.47V860.259C795.47 856.566 793.437 854.408 789.826 854.408C786.174 854.408 783.103 856.566 783.103 862.127V873H780.364V852.25H783.103V855.487C784.722 852.872 787.129 851.752 790.075 851.752ZM804.875 847.851C803.754 847.851 802.883 846.938 802.883 845.859C802.883 844.78 803.754 843.867 804.875 843.867C805.995 843.867 806.867 844.78 806.867 845.859C806.867 846.938 805.995 847.851 804.875 847.851ZM803.505 873V852.25H806.244V873H803.505ZM823.054 854.906H817.078V867.48C817.078 871.049 819.029 870.759 823.054 870.593V873C817.452 873.83 814.339 872.46 814.339 867.48V854.906H809.982V852.25H814.339V847.27L817.078 846.44V852.25H823.054V854.906ZM840.265 843.95L836.281 849.345H833.625L836.945 843.95H840.265ZM835.949 851.752C842.299 851.752 846.241 857.022 846.241 862.708C846.241 863.123 846.2 863.579 846.158 863.994H827.94C828.521 868.227 831.799 870.842 836.198 870.842C839.477 870.842 841.759 869.306 842.88 867.314L845.287 868.725C843.544 871.547 840.348 873.498 836.157 873.498C829.6 873.498 825.118 868.891 825.118 862.625C825.118 856.524 829.517 851.752 835.949 851.752ZM835.949 854.408C831.592 854.408 828.479 857.271 827.94 861.338H843.419C842.838 856.773 839.518 854.408 835.949 854.408Z" fill="#E8E8E8"/>
<rect x="-22" y="1636" width="1139" height="445" fill="#002FA7"/>
<path d="M246.918 1647.4C252.966 1647.4 257.478 1651.91 257.478 1657.96C257.478 1663.96 252.966 1668.52 246.918 1668.52H238.278V1681H234.918V1647.4H246.918ZM246.918 1665.35C251.094 1665.35 254.118 1662.23 254.118 1657.96C254.118 1653.64 251.094 1650.57 246.918 1650.57H238.278V1665.35H246.918ZM265.45 1660.98C267.13 1657.62 269.962 1656.62 273.034 1656.62V1659.69C269.194 1659.69 265.45 1661.7 265.45 1667.66V1681H262.282V1657H265.45V1660.98ZM292.003 1647.4L287.395 1653.64H284.323L288.163 1647.4H292.003ZM287.011 1656.42C294.355 1656.42 298.915 1662.52 298.915 1669.1C298.915 1669.58 298.867 1670.1 298.819 1670.58H277.747C278.419 1675.48 282.211 1678.5 287.299 1678.5C291.091 1678.5 293.731 1676.73 295.027 1674.42L297.811 1676.06C295.795 1679.32 292.099 1681.58 287.251 1681.58C279.667 1681.58 274.483 1676.25 274.483 1669C274.483 1661.94 279.571 1656.42 287.011 1656.42ZM287.011 1659.5C281.971 1659.5 278.371 1662.81 277.747 1667.51H295.651C294.979 1662.23 291.139 1659.5 287.011 1659.5ZM315.251 1649.9C310.595 1649.51 308.339 1651.43 308.339 1656.04V1657H315.251V1660.07H308.339V1681H305.171V1660.07H301.091V1657H305.171V1656.04C305.171 1649.8 308.771 1646.34 315.251 1646.82V1649.9ZM337.812 1657H340.981V1681H337.812V1676.3C335.797 1679.51 332.389 1681.58 328.117 1681.58C321.349 1681.58 315.733 1676.1 315.733 1669C315.733 1661.9 321.349 1656.42 328.117 1656.42C332.389 1656.42 335.797 1658.49 337.812 1661.7V1657ZM328.357 1678.5C333.685 1678.5 337.812 1674.33 337.812 1669C337.812 1663.67 333.685 1659.5 328.357 1659.5C323.029 1659.5 318.901 1663.67 318.901 1669C318.901 1674.33 323.029 1678.5 328.357 1678.5ZM358.872 1681.58C351.624 1681.58 346.248 1676.1 346.248 1669C346.248 1661.9 351.624 1656.42 358.872 1656.42C363.624 1656.42 367.656 1658.92 369.384 1662.71L366.792 1664.2C365.496 1661.37 362.472 1659.5 358.872 1659.5C353.544 1659.5 349.416 1663.67 349.416 1669C349.416 1674.33 353.544 1678.5 358.872 1678.5C362.52 1678.5 365.448 1676.58 366.984 1673.8L369.624 1675.34C367.656 1679.13 363.576 1681.58 358.872 1681.58ZM385.026 1656.42C392.37 1656.42 396.93 1662.52 396.93 1669.1C396.93 1669.58 396.882 1670.1 396.834 1670.58H375.762C376.434 1675.48 380.226 1678.5 385.314 1678.5C389.106 1678.5 391.746 1676.73 393.042 1674.42L395.826 1676.06C393.81 1679.32 390.114 1681.58 385.266 1681.58C377.682 1681.58 372.498 1676.25 372.498 1669C372.498 1661.94 377.586 1656.42 385.026 1656.42ZM385.026 1659.5C379.986 1659.5 376.386 1662.81 375.762 1667.51H393.666C392.994 1662.23 389.154 1659.5 385.026 1659.5ZM434.609 1647.4H437.777V1681H434.609V1676.3C432.593 1679.51 429.185 1681.58 424.913 1681.58C418.145 1681.58 412.529 1676.1 412.529 1669C412.529 1661.9 418.145 1656.42 424.913 1656.42C429.185 1656.42 432.593 1658.49 434.609 1661.7V1647.4ZM425.153 1678.5C430.481 1678.5 434.609 1674.33 434.609 1669C434.609 1663.67 430.481 1659.5 425.153 1659.5C419.825 1659.5 415.697 1663.67 415.697 1669C415.697 1674.33 419.825 1678.5 425.153 1678.5ZM455.573 1656.42C462.917 1656.42 467.477 1662.52 467.477 1669.1C467.477 1669.58 467.429 1670.1 467.381 1670.58H446.309C446.981 1675.48 450.773 1678.5 455.861 1678.5C459.653 1678.5 462.293 1676.73 463.589 1674.42L466.373 1676.06C464.357 1679.32 460.661 1681.58 455.813 1681.58C448.229 1681.58 443.045 1676.25 443.045 1669C443.045 1661.94 448.133 1656.42 455.573 1656.42ZM455.573 1659.5C450.533 1659.5 446.933 1662.81 446.309 1667.51H464.213C463.541 1662.23 459.701 1659.5 455.573 1659.5ZM493.3 1681.58C488.788 1681.58 484.756 1679.7 483.076 1675.82L485.908 1674.14C487.012 1677.06 489.796 1678.31 493.3 1678.31C497.668 1678.31 500.98 1676.34 500.98 1671.5V1647.4H504.34V1671.5C504.34 1678.36 499.204 1681.58 493.3 1681.58ZM521.901 1656.42C529.245 1656.42 533.805 1662.52 533.805 1669.1C533.805 1669.58 533.757 1670.1 533.709 1670.58H512.637C513.309 1675.48 517.101 1678.5 522.189 1678.5C525.981 1678.5 528.621 1676.73 529.917 1674.42L532.701 1676.06C530.685 1679.32 526.989 1681.58 522.141 1681.58C514.557 1681.58 509.373 1676.25 509.373 1669C509.373 1661.94 514.461 1656.42 521.901 1656.42ZM521.901 1659.5C516.861 1659.5 513.261 1662.81 512.637 1667.51H530.541C529.869 1662.23 526.029 1659.5 521.901 1659.5ZM559.484 1657H562.652V1681H559.484V1676.3C557.468 1679.51 554.06 1681.58 549.788 1681.58C543.02 1681.58 537.404 1676.1 537.404 1669C537.404 1661.9 543.02 1656.42 549.788 1656.42C554.06 1656.42 557.468 1658.49 559.484 1661.7V1657ZM550.028 1678.5C555.356 1678.5 559.484 1674.33 559.484 1669C559.484 1663.67 555.356 1659.5 550.028 1659.5C544.7 1659.5 540.572 1663.67 540.572 1669C540.572 1674.33 544.7 1678.5 550.028 1678.5ZM580.592 1656.42C586.448 1656.42 590 1660.26 590 1666.26V1681H586.832V1666.26C586.832 1661.99 584.48 1659.5 580.304 1659.5C576.08 1659.5 572.528 1661.99 572.528 1668.42V1681H569.36V1657H572.528V1660.74C574.4 1657.72 577.184 1656.42 580.592 1656.42ZM596.606 1667.7V1664.63H613.886V1667.7H596.606ZM633.543 1647.4C639.591 1647.4 644.103 1651.91 644.103 1657.96C644.103 1663.96 639.591 1668.52 633.543 1668.52H624.903V1681H621.543V1647.4H633.543ZM633.543 1665.35C637.719 1665.35 640.743 1662.23 640.743 1657.96C640.743 1653.64 637.719 1650.57 633.543 1650.57H624.903V1665.35H633.543ZM650.96 1651.91C649.664 1651.91 648.656 1650.86 648.656 1649.61C648.656 1648.36 649.664 1647.3 650.96 1647.3C652.256 1647.3 653.264 1648.36 653.264 1649.61C653.264 1650.86 652.256 1651.91 650.96 1651.91ZM649.376 1681V1657H652.544V1681H649.376ZM670.354 1656.42C677.698 1656.42 682.258 1662.52 682.258 1669.1C682.258 1669.58 682.21 1670.1 682.162 1670.58H661.09C661.762 1675.48 665.554 1678.5 670.642 1678.5C674.434 1678.5 677.074 1676.73 678.37 1674.42L681.154 1676.06C679.138 1679.32 675.442 1681.58 670.594 1681.58C663.01 1681.58 657.826 1676.25 657.826 1669C657.826 1661.94 662.914 1656.42 670.354 1656.42ZM670.354 1659.5C665.314 1659.5 661.714 1662.81 661.09 1667.51H678.994C678.322 1662.23 674.482 1659.5 670.354 1659.5ZM690.466 1660.98C692.146 1657.62 694.978 1656.62 698.049 1656.62V1659.69C694.21 1659.69 690.466 1661.7 690.466 1667.66V1681H687.298V1657H690.466V1660.98ZM705.559 1660.98C707.239 1657.62 710.071 1656.62 713.143 1656.62V1659.69C709.303 1659.69 705.559 1661.7 705.559 1667.66V1681H702.391V1657H705.559V1660.98ZM727.12 1656.42C734.464 1656.42 739.024 1662.52 739.024 1669.1C739.024 1669.58 738.976 1670.1 738.928 1670.58H717.856C718.528 1675.48 722.32 1678.5 727.408 1678.5C731.2 1678.5 733.84 1676.73 735.136 1674.42L737.92 1676.06C735.904 1679.32 732.208 1681.58 727.36 1681.58C719.776 1681.58 714.592 1676.25 714.592 1669C714.592 1661.94 719.68 1656.42 727.12 1656.42ZM727.12 1659.5C722.08 1659.5 718.48 1662.81 717.856 1667.51H735.76C735.088 1662.23 731.248 1659.5 727.12 1659.5ZM788.655 1665.02V1666.74C788.655 1674.76 782.559 1681.58 772.239 1681.58C761.919 1681.58 754.623 1673.8 754.623 1664.2C754.623 1654.6 761.919 1646.82 772.239 1646.82C778.527 1646.82 783.999 1650.14 786.783 1655.08L783.807 1656.81C781.743 1652.78 777.279 1650.09 772.239 1650.09C763.743 1650.09 757.983 1656.38 757.983 1664.2C757.983 1672.02 763.743 1678.31 772.239 1678.31C780.063 1678.31 784.575 1673.8 785.199 1668.18H771.855V1665.02H788.655ZM805.122 1681.58C798.114 1681.58 792.498 1676.1 792.498 1669C792.498 1661.9 798.114 1656.42 805.122 1656.42C812.13 1656.42 817.746 1661.9 817.746 1669C817.746 1676.1 812.13 1681.58 805.122 1681.58ZM805.122 1678.5C810.45 1678.5 814.578 1674.33 814.578 1669C814.578 1663.67 810.45 1659.5 805.122 1659.5C799.794 1659.5 795.666 1663.67 795.666 1669C795.666 1674.33 799.794 1678.5 805.122 1678.5ZM839.944 1657H843.112V1681H839.944V1677.26C838.072 1680.28 835.288 1681.58 831.88 1681.58C826.023 1681.58 822.472 1677.74 822.472 1671.74V1657H825.64V1671.74C825.64 1676.01 827.992 1678.5 832.168 1678.5C836.392 1678.5 839.944 1676.01 839.944 1669.58V1657ZM869.973 1681H866.181L858.693 1671.11L851.205 1681H847.413L856.821 1668.57L848.037 1657H851.829L858.693 1666.07L865.557 1657H869.349L860.613 1668.57L869.973 1681Z" fill="#E8E8E8"/>
<g filter="url(#filter0_f_6948_472)">
<circle cx="551" cy="1455" r="100" fill="#A7D8FF" fill-opacity="0.35"/>
</g>
<g filter="url(#filter1_f_6948_472)">
<circle cx="549" cy="1455" r="35" fill="white" fill-opacity="0.79"/>
</g>
<g filter="url(#filter2_d_6948_472)">
<circle cx="548" cy="2713" r="1250" fill="#002FA7"/>
</g>
<path d="M2046 2955C2046 3783.43 1374.43 4455 546 4455C-282.427 4455 -954 3783.43 -954 2955C-954 2126.57 -282.427 1455 546 1455C1374.43 1455 2046 2126.57 2046 2955Z" fill="#002FA7"/>
<path d="M496.244 1728.26H510.057V1732H492.292V1702.25H509.844V1705.99H496.244V1715.13H508.782V1718.82H496.244V1728.26ZM521.884 1716.49C521.884 1721.03 533.784 1718.36 533.784 1726.18C533.784 1730.13 530.384 1732.55 525.836 1732.55C521.586 1732.55 518.611 1730.51 517.379 1727.58L520.566 1725.75C521.246 1727.79 523.201 1729.07 525.836 1729.07C528.089 1729.07 530.044 1728.26 530.044 1726.18C530.044 1721.63 518.144 1724.22 518.144 1716.53C518.144 1712.79 521.374 1710.2 525.666 1710.2C529.151 1710.2 531.956 1711.85 533.316 1714.62L530.214 1716.36C529.406 1714.45 527.536 1713.64 525.666 1713.64C523.754 1713.64 521.884 1714.57 521.884 1716.49ZM544.271 1716.49C544.271 1721.03 556.171 1718.36 556.171 1726.18C556.171 1730.13 552.771 1732.55 548.223 1732.55C543.973 1732.55 540.998 1730.51 539.766 1727.58L542.953 1725.75C543.633 1727.79 545.588 1729.07 548.223 1729.07C550.476 1729.07 552.431 1728.26 552.431 1726.18C552.431 1721.63 540.531 1724.22 540.531 1716.53C540.531 1712.79 543.761 1710.2 548.053 1710.2C551.538 1710.2 554.343 1711.85 555.703 1714.62L552.601 1716.36C551.793 1714.45 549.923 1713.64 548.053 1713.64C546.141 1713.64 544.271 1714.57 544.271 1716.49ZM581.813 1710.75H585.51V1732H581.813V1728.34C580.113 1730.94 577.393 1732.55 573.78 1732.55C567.873 1732.55 563.028 1727.66 563.028 1721.38C563.028 1715.08 567.873 1710.2 573.78 1710.2C577.393 1710.2 580.113 1711.81 581.813 1714.4V1710.75ZM574.248 1728.98C578.54 1728.98 581.813 1725.71 581.813 1721.38C581.813 1717.04 578.54 1713.77 574.248 1713.77C569.998 1713.77 566.725 1717.04 566.725 1721.38C566.725 1725.71 569.998 1728.98 574.248 1728.98ZM597.232 1706.88C595.83 1706.88 594.725 1705.78 594.725 1704.42C594.725 1703.06 595.83 1701.91 597.232 1701.91C598.592 1701.91 599.697 1703.06 599.697 1704.42C599.697 1705.78 598.592 1706.88 597.232 1706.88ZM595.362 1732V1710.75H599.06V1732H595.362Z" fill="#E8E8E8"/>
</g>
<defs>
<filter id="filter0_f_6948_472" x="311" y="1215" width="480" height="480" filterUnits="userSpaceOnUse" color-interpolation-filters="sRGB">
<feFlood flood-opacity="0" result="BackgroundImageFix"/>
<feBlend mode="normal" in="SourceGraphic" in2="BackgroundImageFix" result="shape"/>
<feGaussianBlur stdDeviation="70" result="effect1_foregroundBlur_6948_472"/>
</filter>
<filter id="filter1_f_6948_472" x="464" y="1370" width="170" height="170" filterUnits="userSpaceOnUse" color-interpolation-filters="sRGB">
<feFlood flood-opacity="0" result="BackgroundImageFix"/>
<feBlend mode="normal" in="SourceGraphic" in2="BackgroundImageFix" result="shape"/>
<feGaussianBlur stdDeviation="25" result="effect1_foregroundBlur_6948_472"/>
</filter>
<filter id="filter2_d_6948_472" x="-728" y="1437" width="2560" height="2560" filterUnits="userSpaceOnUse" color-interpolation-filters="sRGB">
<feFlood flood-opacity="0" result="BackgroundImageFix"/>
<feColorMatrix in="SourceAlpha" type="matrix" values="0 0 0 0 0 0 0 0 0 0 0 0 0 0 0 0 0 0 127 0" result="hardAlpha"/>
<feMorphology radius="15" operator="dilate" in="SourceAlpha" result="effect1_dropShadow_6948_472"/>
<feOffset dx="4" dy="4"/>
<feGaussianBlur stdDeviation="7.5"/>
<feComposite in2="hardAlpha" operator="out"/>
<feColorMatrix type="matrix" values="0 0 0 0 1 0 0 0 0 1 0 0 0 0 1 0 0 0 1 0"/>
<feBlend mode="normal" in2="BackgroundImageFix" result="effect1_dropShadow_6948_472"/>
<feBlend mode="normal" in="SourceGraphic" in2="effect1_dropShadow_6948_472" result="shape"/>
</filter>
<clipPath id="clip0_6948_472">
<rect width="1100" height="1800" fill="white"/>
</clipPath>
</defs>
</svg>
